<svg xmlns="http://www.w3.org/2000/svg" viewBox="0 0 920 186" width="920" height="186" role="img" aria-label="Example output as a timeline: three speakers over 30 seconds, overlaps aligned vertically">
<text x="0" y="20" font-family="-apple-system, BlinkMacSystemFont, 'Segoe UI', Helvetica, Arial, sans-serif" font-size="15" font-weight="700" fill="#e6edf3">Example output as a timeline</text>
<text x="0" y="38" font-family="-apple-system, BlinkMacSystemFont, 'Segoe UI', Helvetica, Arial, sans-serif" font-size="12.5" fill="#8b949e">30 s, 3 speakers · overlapping speech lines up vertically</text>
<rect x="108" y="44" width="788" height="24" rx="5" fill="#161b22"/>
<text x="96" y="61" text-anchor="end" font-family="ui-monospace, 'SF Mono', SFMono-Regular, Menlo, Consolas, monospace" font-size="12.5" fill="#8b949e">speaker_0</text>
<rect x="108.1" y="44" width="67.9" height="24" rx="4" fill="#3987e5"/>
<rect x="256.9" y="44" width="17.1" height="24" rx="4" fill="#3987e5"/>
<rect x="315.0" y="44" width="145.2" height="24" rx="4" fill="#3987e5"/>
<rect x="598.0" y="44" width="15.0" height="24" rx="4" fill="#3987e5"/>
<rect x="715.2" y="44" width="179.4" height="24" rx="4" fill="#3987e5"/>
<rect x="108" y="80" width="788" height="24" rx="5" fill="#161b22"/>
<text x="96" y="97" text-anchor="end" font-family="ui-monospace, 'SF Mono', SFMono-Regular, Menlo, Consolas, monospace" font-size="12.5" fill="#8b949e">speaker_1</text>
<rect x="127.3" y="80" width="332.3" height="24" rx="4" fill="#d95926"/>
<rect x="569.0" y="80" width="11.4" height="24" rx="4" fill="#d95926"/>
<rect x="634.3" y="80" width="50.3" height="24" rx="4" fill="#d95926"/>
<rect x="108" y="116" width="788" height="24" rx="5" fill="#161b22"/>
<text x="96" y="133" text-anchor="end" font-family="ui-monospace, 'SF Mono', SFMono-Regular, Menlo, Consolas, monospace" font-size="12.5" fill="#8b949e">speaker_2</text>
<rect x="108.1" y="116" width="20.2" height="24" rx="4" fill="#199e70"/>
<rect x="462.2" y="116" width="121.8" height="24" rx="4" fill="#199e70"/>
<rect x="615.7" y="116" width="9.8" height="24" rx="4" fill="#199e70"/>
<rect x="711.1" y="116" width="5.2" height="24" rx="4" fill="#199e70"/>
<line x1="108.0" y1="44" x2="108.0" y2="156" stroke="#30363d" stroke-width="1"/>
<text x="108.0" y="172" text-anchor="middle" font-family="-apple-system, BlinkMacSystemFont, 'Segoe UI', Helvetica, Arial, sans-serif" font-size="11.5" fill="#8b949e">0s</text>
<line x1="237.6" y1="44" x2="237.6" y2="156" stroke="#30363d" stroke-width="1"/>
<text x="237.6" y="172" text-anchor="middle" font-family="-apple-system, BlinkMacSystemFont, 'Segoe UI', Helvetica, Arial, sans-serif" font-size="11.5" fill="#8b949e">5s</text>
<line x1="367.2" y1="44" x2="367.2" y2="156" stroke="#30363d" stroke-width="1"/>
<text x="367.2" y="172" text-anchor="middle" font-family="-apple-system, BlinkMacSystemFont, 'Segoe UI', Helvetica, Arial, sans-serif" font-size="11.5" fill="#8b949e">10s</text>
<line x1="496.8" y1="44" x2="496.8" y2="156" stroke="#30363d" stroke-width="1"/>
<text x="496.8" y="172" text-anchor="middle" font-family="-apple-system, BlinkMacSystemFont, 'Segoe UI', Helvetica, Arial, sans-serif" font-size="11.5" fill="#8b949e">15s</text>
<line x1="626.4" y1="44" x2="626.4" y2="156" stroke="#30363d" stroke-width="1"/>
<text x="626.4" y="172" text-anchor="middle" font-family="-apple-system, BlinkMacSystemFont, 'Segoe UI', Helvetica, Arial, sans-serif" font-size="11.5" fill="#8b949e">20s</text>
<line x1="756.0" y1="44" x2="756.0" y2="156" stroke="#30363d" stroke-width="1"/>
<text x="756.0" y="172" text-anchor="middle" font-family="-apple-system, BlinkMacSystemFont, 'Segoe UI', Helvetica, Arial, sans-serif" font-size="11.5" fill="#8b949e">25s</text>
<line x1="885.6" y1="44" x2="885.6" y2="156" stroke="#30363d" stroke-width="1"/>
<text x="885.6" y="172" text-anchor="middle" font-family="-apple-system, BlinkMacSystemFont, 'Segoe UI', Helvetica, Arial, sans-serif" font-size="11.5" fill="#8b949e">30s</text>
</svg>
